# xmcd
#
# Track frame offsets:
#	150
#	17382
#	33721
#	48848
#	62685
#	76025
#	93834
#	106568
#	127177
#	142303
#	164403
#	184893
#	199616
#	212392
#	231318
#	245780
#	256027
#	272665
#	284566
#	298979
#	315976
#
# Disc length: 4425 seconds
#
# Revision: 1
# Processed by: cddbd v1.5.1PL0 Copyright (c) Steve Scherf et al.
# Submitted via: dBpowerAMP V4.0
#
DISCID=2e114715
DTITLE=Various Artist - Blowing the Blues: A History of Blues Harmonica 1926-2002 [CD3: Into The Rock Era and Beyond)
DYEAR=2004
DGENRE=Blues
TTITLE0=Gonna Have A Good Time - Snooky Pryor
TTITLE1=Juke (Re-recording) - Little Walter
TTITLE2=Hoodo Man Blues - Junior Wells
TTITLE3=Don´t Start Me Talking - Good Rockin´ Charles
TTITLE4=Sonny Boy Williamson - Paul Jones and Jack Bruce
TTITLE5=Got Something to Tell You - Doctor Ross
TTITLE6=99 - Sonny Boy Williamson
TTITLE7=Last Night - Paul Butterfield
TTITLE8=Down at the Grocery Store - Jimmy Reed
TTITLE9=Fresh Country Jam - Duster Bennet
TTITLE10=Key to the Highway - Charlie Musselwhite
TTITLE11=Easy - Walter Horton
TTITLE12=Hoodo Party - King Bisquit Boy
TTITLE13=Yoy Went Away Baby - Carey Bell
TTITLE14=Why Worry - John Mayall
TTITLE15=Honeydripper - Big John Wrencher
TTITLE16=Back Door Friend - Billy Boy Arnold
TTITLE17=Rode Myself Crazy - Paul DeLay
TTITLE18=Bring It on Home - Sonny Blake
TTITLE19=Texas Flood - Whispering Smith
TTITLE20=Hootin´ and Screamin´ - Paul Lamb
EXTD=
EXTT0=
EXTT1=
EXTT2=
EXTT3=
EXTT4=
EXTT5=
EXTT6=
EXTT7=
EXTT8=
EXTT9=
EXTT10=
EXTT11=
EXTT12=
EXTT13=
EXTT14=
EXTT15=
EXTT16=
EXTT17=
EXTT18=
EXTT19=
EXTT20=
PLAYORDER=
